<svg width="32" height="32" fill="none" xmlns="http://www.w3.org/2000/svg"><rect width="32" height="32" rx="8" fill="#EEE"/><path d="M14.952 5.373c1.237 2.433-2.57 4.085-4.315 2.26-.728-.777-.393-2.28 1.372-3.096.883-.417 2.12-.797 2.943.836zm7.784-1.07c1.346 2.648-2.8 4.447-4.7 2.46-.792-.847-.428-2.48 1.495-3.37.961-.455 2.307-.868 3.205.91z" fill="#000"/><path fill-rule="evenodd" clip-rule="evenodd" d="M14.776 26.937c2.815.31 5.746-.534 6.878-2.275.957-1.461.174-1.967-.93-.788-2.32 2.558-4.729 1.405-5.744-1.18l.261-.083c4.904-1.883 7.98-6.995 6.035-9.889-2.67-3.99-11.026-.422-12.071 5.17-.958 5.168 1.537 8.624 5.57 9.045zm3.018-13.934c.842 1.293-.174 5.872-3.22 7.95-.088-.646-.088-1.348-.03-2.078.61-5.113 2.351-7.22 3.25-5.871z" fill="#000"/></svg>